<svg width="1440" height="1183" viewBox="0 0 1440 1183" fill="none"
    xmlns="http://www.w3.org/2000/svg">
    <g clip-path="url(#clip0_8_2)">
        <mask id="mask0_8_2" style="mask-type:alpha" maskUnits="userSpaceOnUse" x="-203" y="0" width="1846" height="1184">
            <g opacity="0.4">
                <path d="M-202.91 1183H1631.18" stroke="#DDDDDD"/>
                <path d="M-200.562 995.129H1632.35" stroke="#DDDDDD"/>
                <path d="M1263.07 1183V0" stroke="#DDDDDD"/>
                <path d="M-199.387 807.258H1634.7" stroke="#DDDDDD"/>
                <path d="M1075.2 1183V0" stroke="#DDDDDD"/>
                <path d="M-197.039 619.387H1635.88" stroke="#DDDDDD"/>
                <path d="M887.328 1183V0" stroke="#DDDDDD"/>
                <path d="M-195.867 431.516H1638.22" stroke="#DDDDDD"/>
                <path d="M699.457 1183V0" stroke="#DDDDDD"/>
                <path d="M-193.516 243.645H1640.57" stroke="#DDDDDD"/>
                <path d="M511.586 1183V0" stroke="#DDDDDD"/>
                <path d="M-192.344 55.7734H1641.75" stroke="#DDDDDD"/>
                <path d="M323.715 1183V0" stroke="#DDDDDD"/>
                <path d="M135.844 1183V0" stroke="#DDDDDD"/>
                <path d="M-201.734 1089.06H1632.36" stroke="#DDDDDD"/>
                <path d="M1357 1183V0" stroke="#DDDDDD"/>
                <path d="M-200.562 901.193H1633.53" stroke="#DDDDDD"/>
                <path d="M1169.13 1183V0" stroke="#DDDDDD"/>
                <path d="M-198.215 713.322H1635.88" stroke="#DDDDDD"/>
                <path d="M981.266 1183V0" stroke="#DDDDDD"/>
                <path d="M-197.039 525.451H1637.05" stroke="#DDDDDD"/>
                <path d="M793.391 1183V0" stroke="#DDDDDD"/>
                <path d="M-194.691 337.582H1639.4" stroke="#DDDDDD"/>
                <path d="M605.523 1183V0" stroke="#DDDDDD"/>
                <path d="M-192.344 149.709H1640.57" stroke="#DDDDDD"/>
                <path d="M417.652 1183V0" stroke="#DDDDDD"/>
                <path d="M229.781 1183V0" stroke="#DDDDDD"/>
                <path d="M41.9102 1183V0" stroke="#DDDDDD"/>
                <path d="M-202.91 1136.03H1631.18" stroke="#DDDDDD"/>
                <path d="M1403.97 1183V0" stroke="#DDDDDD"/>
                <path d="M-200.562 948.162H1633.53" stroke="#DDDDDD"/>
                <path d="M1216.1 1183V0" stroke="#DDDDDD"/>
                <path d="M-198.215 760.289H1634.7" stroke="#DDDDDD"/>
                <path d="M1028.23 1183V0" stroke="#DDDDDD"/>
                <path d="M-197.039 572.418H1637.05" stroke="#DDDDDD"/>
                <path d="M840.359 1183V0" stroke="#DDDDDD"/>
                <path d="M-194.691 384.549H1638.22" stroke="#DDDDDD"/>
                <path d="M652.488 1183V0" stroke="#DDDDDD"/>
                <path d="M-193.516 196.678H1640.57" stroke="#DDDDDD"/>
                <path d="M464.617 1183V0" stroke="#DDDDDD"/>
                <path d="M-191.168 8.80664H1642.92" stroke="#DDDDDD"/>
                <path d="M276.746 1183V0" stroke="#DDDDDD"/>
                <path d="M88.875 1183V0" stroke="#DDDDDD"/>
                <path d="M-201.734 1042.1H1632.36" stroke="#DDDDDD"/>
                <path d="M1310.04 1183V0" stroke="#DDDDDD"/>
                <path d="M-199.387 854.227H1634.7" stroke="#DDDDDD"/>
                <path d="M1122.17 1183V0" stroke="#DDDDDD"/>
                <path d="M-198.215 666.355H1635.88" stroke="#DDDDDD"/>
                <path d="M934.297 1183V0" stroke="#DDDDDD"/>
                <path d="M-195.867 478.484H1638.22" stroke="#DDDDDD"/>
                <path d="M746.426 1183V0" stroke="#DDDDDD"/>
                <path d="M-194.691 290.613H1639.4" stroke="#DDDDDD"/>
                <path d="M558.555 1183V0" stroke="#DDDDDD"/>
                <path d="M-192.344 102.742H1641.75" stroke="#DDDDDD"/>
                <path d="M370.684 1183V0" stroke="#DDDDDD"/>
                <path d="M182.812 1183V0" stroke="#DDDDDD"/>
            </g>
        </mask>
        <g mask="url(#mask0_8_2)">
            <g filter="url(#filter0_f_8_2)">
                <path d="M-125.41 582.986L1565.43 582.986V-69.8661L-125.41 -69.8661V582.986Z" fill="#D3D3D3" fill-opacity="0.31"/>
            </g>
        </g>
    </g>
    <defs>
        <filter id="filter0_f_8_2" x="-525.41" y="-469.866" width="2490.84" height="1452.85" filterUnits="userSpaceOnUse" color-interpolation-filters="sRGB">
            <feFlood flood-opacity="0" result="BackgroundImageFix"/>
            <feBlend mode="normal" in="SourceGraphic" in2="BackgroundImageFix" result="shape"/>
            <feGaussianBlur stdDeviation="200" result="effect1_foregroundBlur_8_2"/>
        </filter>
        <clipPath id="clip0_8_2">
            <rect width="1440" height="1183" fill="white"/>
        </clipPath>
    </defs>
</svg>
