<?xml version="1.0" encoding="UTF-8"?>
<svg id="Layer_1" data-name="Layer 1" xmlns="http://www.w3.org/2000/svg" viewBox="0 0 40.84 29.67">
  <defs>
    <style>
      .cls-1 {
        fill: #ff337d;
      }
    </style>
  </defs>
  <path class="cls-1" d="m12.25,9.82l3.17-3.3c.23-.24.63-.24.86,0l2.22,2.31V2.46c0-1.36-1.1-2.46-2.46-2.46h-7.21c-1.36,0-2.46,1.1-2.46,2.46v5.98l1.85-1.93c.23-.24.63-.24.86,0l3.17,3.3Z"/>
  <path class="cls-1" d="m28.59,10.01l3.17-3.3c.23-.24.63-.24.86,0l1.85,1.93V2.46c0-1.36-1.1-2.46-2.46-2.46h-7.21c-1.36,0-2.46,1.1-2.46,2.46v6.56l2.22-2.31c.23-.24.63-.24.86,0l3.17,3.3Z"/>
  <path class="cls-1" d="m38.09,19.7l-3.61-2.12v-5.79l-2.28-2.38-3.17,3.3c-.23.24-.63.24-.86,0l-3.17-3.3-1.49,1.56c-.11.11-.26.18-.41.18h-5.14c-.16,0-.3-.06-.41-.18l-1.68-1.75-3.17,3.3c-.23.24-.63.24-.86,0l-3.17-3.3-2.28,2.38v5.98l-3.61,2.12c-2.11,1.24-3.23,3.74-2.56,6.09.87,3.06,4.14,4.64,7.03,3.52l7.76-3.01c2.12-.82,3.52-2.86,3.52-5.14v-5.67h3.84v5.67c0,2.27,1.4,4.32,3.52,5.14l7.76,3.01c2.89,1.12,6.17-.46,7.03-3.52.67-2.35-.46-4.85-2.56-6.09Z"/>
</svg>