<?xml version="1.0" encoding="UTF-8"?>
<svg id="Layer_1" data-name="Layer 1" xmlns="http://www.w3.org/2000/svg" viewBox="0 0 107.23 32.2">
  <defs>
    <style>
      .cls-1 {
        fill: #ff337d;
      }
    </style>
  </defs>
  <g>
    <path class="cls-1" d="m19.96,2.65v6.86l-2.35-2.45c-.27-.29-.73-.29-1.01,0l-3.38,3.53-3.38-3.53c-.27-.29-.73-.29-1.01,0l-1.96,2.04V2.65c0-1.47,1.19-2.65,2.65-2.65h7.78c1.47,0,2.65,1.19,2.65,2.65Z"/>
    <path class="cls-1" d="m37.2,2.86v6.45l-1.96-2.04c-.27-.29-.73-.29-1.01,0l-3.38,3.53-3.38-3.53c-.27-.29-.73-.29-1.01,0l-2.35,2.45V2.86c0-1.47,1.19-2.65,2.65-2.65h7.78c1.47,0,2.65,1.19,2.65,2.65Z"/>
    <path class="cls-1" d="m43.69,28.54c-1.14,2.95-4.46,4.42-7.42,3.28l-8.37-3.25c-2.28-.89-3.79-3.09-3.79-5.55v-6.32h-4.14v6.11c0,2.45-1.51,4.66-3.79,5.55l-8.19,3.17c-2.63,1.02-5.71.12-7.16-2.29-1.68-2.81-.7-6.32,2-7.91l4.05-2.38v-6.45l2.46-2.57,3.38,3.53c.27.29.73.29,1.01,0l3.38-3.53,1.74,1.81c.16.17.38.26.61.26h5.35c.23,0,.45-.09.61-.26l1.54-1.61,3.38,3.53c.27.29.73.29,1.01,0l3.38-3.53,2.47,2.57v6.46l4.05,2.38c2.41,1.42,3.45,4.38,2.44,7Z"/>
  </g>
  <g>
    <path class="cls-1" d="m50.62,9.24c-.17-.17-.37-.3-.59-.4-.23-.1-.47-.15-.73-.15h-2.74c-.25,0-.49.05-.71.14-.18.08-.35.18-.49.3v-3.3c0-.18-.15-.33-.33-.33h-1.53c-.18,0-.33.15-.33.33v11.49c0,.18.15.33.33.33h1.53c.18,0,.33-.15.33-.33v-6.43h3.61v6.43c0,.18.15.33.33.33h1.53c.18,0,.33-.15.33-.33v-6.76c0-.26-.05-.5-.15-.73-.1-.22-.23-.42-.4-.59Z"/>
    <path class="cls-1" d="m60.28,9.24c-.17-.17-.36-.3-.59-.4-.23-.1-.47-.15-.73-.15h-4.12c-.25,0-.5.05-.72.15-.23.1-.42.23-.59.4s-.3.37-.4.59c-.1.23-.15.47-.15.73v5.23c0,.26.05.5.15.73.1.22.23.42.4.59s.37.3.59.4c.23.1.47.15.72.15h4.12c.26,0,.5-.05.73-.15.22-.1.42-.23.59-.4.17-.17.3-.37.4-.59.1-.23.15-.47.15-.73v-5.23c0-.26-.05-.5-.15-.73-.1-.22-.23-.42-.4-.59Zm-1.65,1.65v4.56h-3.46v-4.56h3.46Z"/>
    <path class="cls-1" d="m68.77,8.7h-2.39v-2.22c0-.18-.15-.33-.33-.33h-1.53c-.18,0-.33.15-.33.33v2.22h-1.69c-.18,0-.33.15-.33.33v1.53c0,.18.15.33.33.33h1.69v4.9c0,.26.05.5.15.73.1.23.23.43.4.59.17.16.37.3.59.39.23.1.47.15.72.15h2.73c.18,0,.33-.15.33-.33v-1.53c0-.18-.15-.33-.33-.33h-2.39v-4.56h2.39c.18,0,.33-.15.33-.33v-1.53c0-.18-.15-.33-.33-.33Z"/>
    <path class="cls-1" d="m77.57,12.55c-.17-.16-.37-.3-.59-.39-.23-.1-.47-.15-.73-.15h-3.31v-1.1h4.52c.18,0,.33-.15.33-.33v-1.53c0-.18-.15-.33-.33-.33h-4.85c-.26,0-.5.05-.73.15-.23.1-.42.23-.59.4s-.3.37-.4.59c-.1.23-.15.47-.15.73v1.77c0,.26.05.5.15.73.1.22.23.42.4.59s.37.3.59.4c.23.1.47.15.73.15h3.31v1.26h-4.84c-.18,0-.33.15-.33.33v1.53c0,.18.15.33.33.33h5.17c.26,0,.5-.05.73-.15.22-.1.42-.23.59-.39.17-.17.31-.37.4-.59.1-.23.15-.47.15-.73v-1.92c0-.26-.05-.5-.15-.73-.1-.23-.23-.43-.4-.59Z"/>
    <path class="cls-1" d="m87.07,9.24c-.17-.17-.36-.3-.59-.4-.23-.1-.47-.15-.73-.15h-4.12c-.25,0-.5.05-.72.15-.23.1-.42.23-.59.4s-.3.37-.4.59c-.1.23-.15.47-.15.73v5.23c0,.26.05.5.15.73.1.22.23.42.4.59s.37.3.59.4c.23.1.47.15.72.15h4.12c.26,0,.5-.05.73-.15.22-.1.42-.23.59-.4.17-.17.3-.37.4-.59.1-.23.15-.47.15-.73v-5.23c0-.26-.05-.5-.15-.73-.1-.22-.23-.42-.4-.59Zm-1.65,1.65v4.56h-3.46v-4.56h3.46Z"/>
    <path class="cls-1" d="m96.56,9.24c-.17-.17-.37-.3-.59-.4-.23-.1-.47-.15-.73-.15h-3.96c-.25,0-.5.05-.72.15-.23.1-.42.23-.59.4s-.3.37-.4.59c-.1.23-.15.47-.15.73v5.23c0,.26.05.5.15.73.1.22.23.42.4.59s.37.3.59.4c.23.1.47.15.72.15h3.96c.26,0,.5-.05.73-.15.23-.1.42-.23.59-.4s.3-.37.4-.59c.1-.23.15-.47.15-.73v-1.4c0-.18-.15-.33-.33-.33h-1.53c-.18,0-.33.15-.33.33v1.07h-3.29v-4.56h3.29v1.07c0,.18.15.33.33.33h1.53c.18,0,.33-.15.33-.33v-1.4c0-.26-.05-.5-.15-.73-.1-.22-.23-.42-.4-.59Z"/>
    <path class="cls-1" d="m102.62,13.04l4.18-3.76c.1-.09.14-.24.09-.37s-.17-.21-.31-.21h-2.16c-.08,0-.16.03-.22.09l-3.08,2.77v-5.72c0-.18-.15-.33-.33-.33h-1.53c-.18,0-.33.15-.33.33v11.49c0,.18.15.33.33.33h1.53c.18,0,.33-.15.33-.33v-2.8l3.4,3.05c.06.05.14.08.22.08h2.16c.14,0,.26-.08.31-.21s.01-.28-.09-.37l-4.5-4.05Z"/>
  </g>
</svg>